<svg width="256" height="256" viewBox="0 0 256 256" fill="none" xmlns="http://www.w3.org/2000/svg">
<path d="M256 128C256 198.692 198.692 256 128 256C57.3075 256 0 198.692 0 128C0 57.3075 57.3075 0 128 0C198.692 0 256 57.3075 256 128Z" fill="#FFB122"/>
<path d="M19 128.561C19 132.328 21.0098 135.809 24.2722 137.693L30 141V135L26.0872 132.741C24.4862 131.817 23.5 130.108 23.5 128.26V126.632C23.5 123.296 27.1585 121.251 30 123V117C24.9462 114.473 19 118.148 19 123.798V128.561Z" fill="#48413C"/>
<path fill-rule="evenodd" clip-rule="evenodd" d="M30 161.963V141V135V123V117V100.981C30 89.4338 42.5 82.2169 52.5 87.9904L78 102.713V157V189.676L30 161.963Z" fill="#B26836"/>
<path d="M30 174.266C30 179.625 32.859 184.576 37.5 187.256L78 210.639V189.676L30 161.963V174.266Z" fill="#9C5025"/>
<path fill-rule="evenodd" clip-rule="evenodd" d="M118.5 126.096C123.141 128.775 126 133.727 126 139.086V217.389L78 189.676V157V102.713L118.5 126.096Z" fill="#9C5025"/>
<path d="M78 210.639L107.846 227.87C115.914 232.528 126 226.705 126 217.389L78 189.676V210.639Z" fill="#893D19"/>
<path d="M184.742 214.487C183.038 215.47 180.939 215.469 179.237 214.484L176.183 212.717C173.878 211.383 173.88 208.056 176.185 206.725L180.094 208.986C181.693 209.911 183.664 209.912 185.264 208.989L186.656 208.185C189.546 206.517 189.489 202.327 186.555 200.738L188.794 199.445C190.599 198.403 192.839 198.471 194.578 199.621C197.986 201.876 197.833 206.928 194.294 208.972L184.742 214.487Z" fill="#48413C"/>
<path fill-rule="evenodd" clip-rule="evenodd" d="M129 217.082C129 226.384 139.065 232.201 147.125 227.558L206.904 193.119V139.331L129 184.309V217.082Z" fill="#B26836"/>
<path d="M225 128.884V174.024C225 179.388 222.136 184.344 217.488 187.021L206.904 193.119V139.331L225 128.884Z" fill="#9C5025"/>
<path fill-rule="evenodd" clip-rule="evenodd" d="M206.904 85.4252L136.512 125.979C131.864 128.656 129 133.612 129 138.976V184.309L206.904 139.331V85.4252Z" fill="#9C5025"/>
<path d="M206.904 85.4252C214.951 80.7893 225 86.5973 225 95.8841V128.884L206.904 139.331V85.4252Z" fill="#893D19"/>
<path d="M182.581 34.8951C179.319 33.0115 175.299 33.0115 172.037 34.8951L166.309 38.2021L171.505 41.2021L175.418 38.943C177.019 38.0187 178.992 38.0187 180.592 38.943L182.002 39.7568C184.891 41.425 184.833 45.6155 181.898 47.2021L187.094 50.2021C191.809 47.0888 191.599 40.1017 186.706 37.2766L182.581 34.8951Z" fill="#48413C"/>
<path fill-rule="evenodd" clip-rule="evenodd" d="M148.155 27.7206L166.309 38.2021L171.505 41.2021L181.898 47.2021L187.094 50.2021L200.967 58.2117C210.967 63.9852 210.967 78.4189 200.967 84.1924L175.467 98.9148L128.453 71.7713L100.155 55.4334L148.155 27.7206Z" fill="#B26836"/>
<path d="M137.5 21.5693C132.859 18.8898 127.141 18.8898 122.5 21.5693L82.0003 44.952L100.155 55.4334L148.155 27.7206L137.5 21.5693Z" fill="#9C5025"/>
<path fill-rule="evenodd" clip-rule="evenodd" d="M134.967 122.297C130.326 124.977 124.608 124.977 119.967 122.297L52.1547 83.1462L100.155 55.4334L128.453 71.7713L175.467 98.9148L134.967 122.297Z" fill="#9C5025"/>
<path d="M82.0003 44.952L52.1547 62.1833C44.0861 66.8417 44.0861 78.4878 52.1547 83.1462L100.155 55.4334L82.0003 44.952Z" fill="#893D19"/>
<path d="M84 157C84 160.314 81.3137 163 78 163C74.6863 163 72 160.314 72 157C72 153.686 74.6863 151 78 151C81.3137 151 84 153.686 84 157Z" fill="#FFB122"/>
<path d="M81.2471 152C82.9724 153.054 84.124 154.954 84.124 157.124C84.124 160.438 81.4377 163.124 78.124 163.124C75.9544 163.124 74.0538 161.972 73 160.247C73.91 160.803 74.9795 161.124 76.124 161.124C79.4377 161.124 82.124 158.438 82.124 155.124C82.124 153.979 81.8032 152.91 81.2471 152Z" fill="#FFC738"/>
<path d="M183 157C183 160.314 180.314 163 177 163C173.686 163 171 160.314 171 157C171 153.686 173.686 151 177 151C180.314 151 183 153.686 183 157Z" fill="#FFB122"/>
<path d="M180.247 152C181.972 153.054 183.124 154.954 183.124 157.124C183.124 160.438 180.438 163.124 177.124 163.124C174.954 163.124 173.054 161.972 172 160.247C172.91 160.803 173.979 161.124 175.124 161.124C178.438 161.124 181.124 158.438 181.124 155.124C181.124 153.979 180.803 152.91 180.247 152Z" fill="#FFC738"/>
<path d="M134 72C134 75.3137 131.314 78 128 78C124.686 78 122 75.3137 122 72C122 68.6863 124.686 66 128 66C131.314 66 134 68.6863 134 72Z" fill="#FFB122"/>
<path d="M131.247 67C132.972 68.0538 134.124 69.9544 134.124 72.124C134.124 75.4377 131.438 78.124 128.124 78.124C125.954 78.124 124.054 76.9724 123 75.2471C123.91 75.8032 124.979 76.124 126.124 76.124C129.438 76.124 132.124 73.4377 132.124 70.124C132.124 68.9795 131.803 67.91 131.247 67Z" fill="#FFC738"/>
</svg>
