<svg xmlns="http://www.w3.org/2000/svg" id="svgContainer" class="w-full h-full" viewBox="449.7755432128906 202.8766632080078 588.4559326171875 604.6870727539062"><g id="mainBlob"><path d="M 1031.53 501.00 C 1035.76 541.34, 1045.94 627.70, 1027.88 661.44 C 1009.82 695.17, 933.13 734.54, 896.08 754.02 C 859.03 773.49, 788.11 808.98, 750.00 807.52 C 711.89 806.06, 645.75 763.45, 610.24 743.08 C 574.73 722.71, 505.04 687.04, 483.68 654.76 C 462.31 622.48, 447.73 540.69, 450.01 501.00 C 452.28 461.31, 480.30 391.00, 500.72 357.08 C 521.13 323.16, 569.89 266.95, 603.12 246.60 C 636.36 226.26, 708.93 207.78, 750.00 204.48 C 791.07 201.18, 878.35 201.25, 911.17 221.84 C 943.99 242.43, 980.09 321.67, 996.14 358.89 C 1012.19 396.11, 1027.29 460.66, 1031.53 501.00 Z" fill="#2596be" stroke="00000010" stroke-width="1"/></g></svg>