<svg xmlns="http://www.w3.org/2000/svg" id="svgContainer" class="w-full h-full" viewBox="0 0 1500 1002" width="1500" height="1002" style="width: 100%; height: 100%;"><g id="mainBlob"><path d="M 1042.55 501.00 C 1043.01 543.31, 1046.06 626.89, 1026.56 660.67 C 1007.06 694.46, 933.17 733.38, 896.30 754.40 C 859.42 775.41, 790.59 815.57, 750.00 818.30 C 709.41 821.03, 625.34 797.87, 591.87 774.89 C 558.40 751.91, 517.05 682.46, 498.95 645.94 C 480.84 609.43, 459.53 541.64, 456.09 501.00 C 452.65 460.36, 454.30 376.43, 473.12 341.14 C 491.93 305.85, 560.29 253.11, 597.21 236.35 C 634.12 219.59, 708.25 217.17, 750.00 215.44 C 791.75 213.70, 873.88 206.30, 910.30 223.35 C 946.72 240.40, 1005.48 306.30, 1023.11 343.32 C 1040.75 380.34, 1042.09 458.69, 1042.55 501.00 Z" fill="#2596be" stroke="00000010" stroke-width="1"/></g></svg>